{
	"patcher" : 	{
		"fileversion" : 1,
		"appversion" : 		{
			"major" : 8,
			"minor" : 6,
			"revision" : 2,
			"architecture" : "x64",
			"modernui" : 1
		}
,
		"classnamespace" : "box",
		"rect" : [ 43.0, 86.0, 1646.0, 975.0 ],
		"bglocked" : 0,
		"openinpresentation" : 0,
		"default_fontsize" : 12.0,
		"default_fontface" : 0,
		"default_fontname" : "Arial",
		"gridonopen" : 1,
		"gridsize" : [ 15.0, 15.0 ],
		"gridsnaponopen" : 1,
		"objectsnaponopen" : 1,
		"statusbarvisible" : 2,
		"toolbarvisible" : 1,
		"lefttoolbarpinned" : 0,
		"toptoolbarpinned" : 0,
		"righttoolbarpinned" : 0,
		"bottomtoolbarpinned" : 0,
		"toolbars_unpinned_last_save" : 0,
		"tallnewobj" : 0,
		"boxanimatetime" : 200,
		"enablehscroll" : 1,
		"enablevscroll" : 1,
		"devicewidth" : 0.0,
		"description" : "",
		"digest" : "",
		"tags" : "",
		"style" : "",
		"subpatcher_template" : "CCAM-EARTH",
		"assistshowspatchername" : 0,
		"boxes" : [ 			{
				"box" : 				{
					"fontface" : 0,
					"fontname" : "Arial",
					"fontsize" : 12.0,
					"id" : "obj-32",
					"maxclass" : "number~",
					"mode" : 2,
					"numinlets" : 2,
					"numoutlets" : 2,
					"outlettype" : [ "signal", "float" ],
					"patching_rect" : [ 733.0, 461.0, 210.0, 22.0 ],
					"sig" : 0.0
				}

			}
, 			{
				"box" : 				{
					"format" : 6,
					"id" : "obj-31",
					"maxclass" : "flonum",
					"numinlets" : 1,
					"numoutlets" : 2,
					"outlettype" : [ "", "bang" ],
					"parameter_enable" : 0,
					"patching_rect" : [ 745.0, 336.0, 50.0, 22.0 ]
				}

			}
, 			{
				"box" : 				{
					"id" : "obj-30",
					"maxclass" : "newobj",
					"numinlets" : 1,
					"numoutlets" : 1,
					"outlettype" : [ "signal" ],
					"patching_rect" : [ 741.0, 396.0, 31.0, 22.0 ],
					"text" : "sig~"
				}

			}
, 			{
				"box" : 				{
					"id" : "obj-29",
					"maxclass" : "live.scope~",
					"numinlets" : 2,
					"numoutlets" : 1,
					"outlettype" : [ "bang" ],
					"patching_rect" : [ 712.0, 496.0, 184.0, 68.0 ]
				}

			}
, 			{
				"box" : 				{
					"format" : 6,
					"id" : "obj-27",
					"maxclass" : "flonum",
					"numinlets" : 1,
					"numoutlets" : 2,
					"outlettype" : [ "", "bang" ],
					"parameter_enable" : 0,
					"patching_rect" : [ 442.0, 306.0, 50.0, 22.0 ]
				}

			}
, 			{
				"box" : 				{
					"id" : "obj-21",
					"maxclass" : "newobj",
					"numinlets" : 2,
					"numoutlets" : 1,
					"outlettype" : [ "signal" ],
					"patching_rect" : [ 365.0, 372.0, 29.5, 22.0 ],
					"text" : "*~"
				}

			}
, 			{
				"box" : 				{
					"fontface" : 0,
					"fontname" : "Arial",
					"fontsize" : 12.0,
					"id" : "obj-2",
					"maxclass" : "number~",
					"mode" : 2,
					"numinlets" : 2,
					"numoutlets" : 2,
					"outlettype" : [ "signal", "float" ],
					"patching_rect" : [ 479.0, 514.0, 56.0, 22.0 ],
					"sig" : 0.0
				}

			}
, 			{
				"box" : 				{
					"format" : 6,
					"id" : "obj-24",
					"maxclass" : "flonum",
					"numinlets" : 1,
					"numoutlets" : 2,
					"outlettype" : [ "", "bang" ],
					"parameter_enable" : 0,
					"patching_rect" : [ 482.0, 341.0, 50.0, 22.0 ]
				}

			}
, 			{
				"box" : 				{
					"format" : 6,
					"id" : "obj-22",
					"maxclass" : "flonum",
					"numinlets" : 1,
					"numoutlets" : 2,
					"outlettype" : [ "", "bang" ],
					"parameter_enable" : 0,
					"patching_rect" : [ 341.333343505859375, 306.0, 50.0, 22.0 ]
				}

			}
, 			{
				"box" : 				{
					"id" : "obj-20",
					"maxclass" : "newobj",
					"numinlets" : 1,
					"numoutlets" : 1,
					"outlettype" : [ "signal" ],
					"patching_rect" : [ 469.0, 388.0, 31.0, 22.0 ],
					"text" : "sig~"
				}

			}
, 			{
				"box" : 				{
					"id" : "obj-19",
					"maxclass" : "newobj",
					"numinlets" : 1,
					"numoutlets" : 1,
					"outlettype" : [ "signal" ],
					"patching_rect" : [ 337.333343505859375, 348.0, 31.0, 22.0 ],
					"text" : "sig~"
				}

			}
, 			{
				"box" : 				{
					"id" : "obj-18",
					"maxclass" : "button",
					"numinlets" : 1,
					"numoutlets" : 1,
					"outlettype" : [ "bang" ],
					"parameter_enable" : 0,
					"patching_rect" : [ 285.333343505859375, 285.0, 24.0, 24.0 ]
				}

			}
, 			{
				"box" : 				{
					"id" : "obj-13",
					"maxclass" : "newobj",
					"numinlets" : 1,
					"numoutlets" : 1,
					"outlettype" : [ "signal" ],
					"patching_rect" : [ 283.333343505859375, 348.0, 39.0, 22.0 ],
					"text" : "click~"
				}

			}
, 			{
				"box" : 				{
					"basictuning" : 440,
					"data" : 					{
						"clips" : [ 							{
								"absolutepath" : "Tbn-ord-A#1-ff.wav",
								"filename" : "Tbn-ord-A#1-ff.wav",
								"filekind" : "audiofile",
								"id" : "u610001493",
								"selection" : [ 0.0, 1.0 ],
								"loop" : 1,
								"content_state" : 								{
									"loop" : 1
								}

							}
 ]
					}
,
					"followglobaltempo" : 0,
					"formantcorrection" : 0,
					"id" : "obj-39",
					"maxclass" : "playlist~",
					"mode" : "basic",
					"numinlets" : 1,
					"numoutlets" : 5,
					"originallength" : [ 0.0, "ticks" ],
					"originaltempo" : 120.0,
					"outlettype" : [ "signal", "signal", "signal", "", "dictionary" ],
					"parameter_enable" : 0,
					"patching_rect" : [ 666.0, 261.0, 150.0, 30.0 ],
					"pitchcorrection" : 0,
					"quality" : "basic",
					"timestretch" : [ 0 ]
				}

			}
, 			{
				"box" : 				{
					"id" : "obj-16",
					"maxclass" : "comment",
					"numinlets" : 1,
					"numoutlets" : 0,
					"patching_rect" : [ 375.666677355766296, 566.0, 150.0, 34.0 ],
					"text" : "cvout1\n"
				}

			}
, 			{
				"box" : 				{
					"id" : "obj-15",
					"maxclass" : "live.scope~",
					"numinlets" : 2,
					"numoutlets" : 1,
					"outlettype" : [ "bang" ],
					"patching_rect" : [ 358.666677355766296, 581.0, 184.0, 68.0 ]
				}

			}
, 			{
				"box" : 				{
					"id" : "obj-14",
					"maxclass" : "comment",
					"numinlets" : 1,
					"numoutlets" : 0,
					"patching_rect" : [ 375.666677355766296, 651.0, 150.0, 34.0 ],
					"text" : "cvout2\n"
				}

			}
, 			{
				"box" : 				{
					"id" : "obj-12",
					"maxclass" : "live.scope~",
					"numinlets" : 2,
					"numoutlets" : 1,
					"outlettype" : [ "bang" ],
					"patching_rect" : [ 358.666677355766296, 668.0, 184.0, 68.0 ]
				}

			}
, 			{
				"box" : 				{
					"bgcolor" : [ 0.4, 0.4, 0.749019607843137, 0.0 ],
					"fontface" : 0,
					"fontname" : "DIN Condensed Bold",
					"fontsize" : 20.0,
					"id" : "obj-65",
					"maxclass" : "comment",
					"numinlets" : 1,
					"numoutlets" : 0,
					"patching_rect" : [ 323.333342969417572, 49.333334803581238, 228.0, 31.0 ],
					"presentation" : 1,
					"presentation_rect" : [ 58.611111111111086, 28.5, 228.0, 31.0 ],
					"text" : "Harmonia Terra",
					"textcolor" : [ 0.062745098039216, 0.062745098039216, 0.117647058823529, 1.0 ],
					"textjustification" : 1
				}

			}
, 			{
				"box" : 				{
					"angle" : 270.0,
					"bgcolor" : [ 0.894117647058824, 0.83921568627451, 1.0, 1.0 ],
					"id" : "obj-66",
					"maxclass" : "panel",
					"mode" : 0,
					"numinlets" : 1,
					"numoutlets" : 0,
					"patching_rect" : [ 341.333343505859375, 39.333334505558014, 182.0, 36.0 ],
					"presentation" : 1,
					"presentation_rect" : [ 52.184027777777715, 28.0, 229.0, 32.0 ],
					"proportion" : 0.5
				}

			}
, 			{
				"box" : 				{
					"id" : "obj-59",
					"maxclass" : "live.dial",
					"numinlets" : 1,
					"numoutlets" : 2,
					"outlettype" : [ "", "float" ],
					"parameter_enable" : 1,
					"patching_rect" : [ 508.666681826114655, 170.000005066394806, 60.0, 48.0 ],
					"presentation" : 1,
					"presentation_rect" : [ 208.611111111111086, 261.0, 60.0, 48.0 ],
					"saved_attribute_attributes" : 					{
						"valueof" : 						{
							"parameter_longname" : "BPM[3]",
							"parameter_mmax" : 1.0,
							"parameter_modmode" : 0,
							"parameter_shortname" : "knob",
							"parameter_steps" : 127,
							"parameter_type" : 0,
							"parameter_unitstyle" : 1
						}

					}
,
					"varname" : "live.dial[3]"
				}

			}
, 			{
				"box" : 				{
					"id" : "obj-60",
					"maxclass" : "live.dial",
					"numinlets" : 1,
					"numoutlets" : 2,
					"outlettype" : [ "", "float" ],
					"parameter_enable" : 1,
					"patching_rect" : [ 433.333346247673035, 170.000005066394806, 60.0, 48.0 ],
					"presentation" : 1,
					"presentation_rect" : [ 133.611111111111086, 261.0, 60.0, 48.0 ],
					"saved_attribute_attributes" : 					{
						"valueof" : 						{
							"parameter_longname" : "BPM[4]",
							"parameter_mmax" : 1.0,
							"parameter_modmode" : 0,
							"parameter_shortname" : "knob",
							"parameter_steps" : 127,
							"parameter_type" : 0,
							"parameter_unitstyle" : 1
						}

					}
,
					"varname" : "live.dial[4]"
				}

			}
, 			{
				"box" : 				{
					"id" : "obj-61",
					"maxclass" : "live.dial",
					"numinlets" : 1,
					"numoutlets" : 2,
					"outlettype" : [ "", "float" ],
					"parameter_enable" : 1,
					"patching_rect" : [ 358.666677355766296, 170.000005066394806, 60.0, 48.0 ],
					"presentation" : 1,
					"presentation_rect" : [ 58.611111111111086, 261.0, 60.0, 48.0 ],
					"saved_attribute_attributes" : 					{
						"valueof" : 						{
							"parameter_longname" : "BPM[5]",
							"parameter_mmax" : 32.0,
							"parameter_mmin" : 1.0,
							"parameter_modmode" : 0,
							"parameter_shortname" : "voices",
							"parameter_steps" : 15,
							"parameter_type" : 1,
							"parameter_unitstyle" : 0
						}

					}
,
					"varname" : "live.dial[5]"
				}

			}
, 			{
				"box" : 				{
					"id" : "obj-58",
					"maxclass" : "live.dial",
					"numinlets" : 1,
					"numoutlets" : 2,
					"outlettype" : [ "", "float" ],
					"parameter_enable" : 1,
					"patching_rect" : [ 508.666681826114655, 95.333336174488068, 60.0, 48.0 ],
					"presentation" : 1,
					"presentation_rect" : [ 208.611111111111086, 201.0, 60.0, 48.0 ],
					"saved_attribute_attributes" : 					{
						"valueof" : 						{
							"parameter_longname" : "BPM[2]",
							"parameter_mmax" : 16.0,
							"parameter_mmin" : 1.0,
							"parameter_modmode" : 0,
							"parameter_shortname" : "knob",
							"parameter_steps" : 127,
							"parameter_type" : 1,
							"parameter_unitstyle" : 0
						}

					}
,
					"varname" : "live.dial[2]"
				}

			}
, 			{
				"box" : 				{
					"id" : "obj-57",
					"maxclass" : "live.dial",
					"numinlets" : 1,
					"numoutlets" : 2,
					"outlettype" : [ "", "float" ],
					"parameter_enable" : 1,
					"patching_rect" : [ 435.333346307277679, 95.333336174488068, 60.0, 48.0 ],
					"presentation" : 1,
					"presentation_rect" : [ 133.611111111111086, 201.0, 60.0, 48.0 ],
					"saved_attribute_attributes" : 					{
						"valueof" : 						{
							"parameter_longname" : "BPM[1]",
							"parameter_mmax" : 16.0,
							"parameter_mmin" : 1.0,
							"parameter_modmode" : 0,
							"parameter_shortname" : "knob",
							"parameter_steps" : 127,
							"parameter_type" : 1,
							"parameter_unitstyle" : 0
						}

					}
,
					"varname" : "live.dial[1]"
				}

			}
, 			{
				"box" : 				{
					"id" : "obj-56",
					"maxclass" : "live.dial",
					"numinlets" : 1,
					"numoutlets" : 2,
					"outlettype" : [ "", "float" ],
					"parameter_enable" : 1,
					"patching_rect" : [ 358.666677355766296, 95.333336174488068, 60.0, 48.0 ],
					"presentation" : 1,
					"presentation_rect" : [ 58.611111111111086, 201.0, 60.0, 48.0 ],
					"saved_attribute_attributes" : 					{
						"valueof" : 						{
							"parameter_longname" : "BPM",
							"parameter_mmax" : 220.0,
							"parameter_mmin" : 60.0,
							"parameter_modmode" : 0,
							"parameter_shortname" : "knob",
							"parameter_steps" : 127,
							"parameter_type" : 1,
							"parameter_unitstyle" : 0
						}

					}
,
					"varname" : "live.dial"
				}

			}
, 			{
				"box" : 				{
					"angle" : 270.0,
					"bgcolor" : [ 0.76078431372549, 0.76078431372549, 0.898039215686275, 1.0 ],
					"border" : 3,
					"bordercolor" : [ 0.584313725490196, 0.584313725490196, 0.647058823529412, 1.0 ],
					"id" : "obj-62",
					"maxclass" : "panel",
					"mode" : 0,
					"numinlets" : 1,
					"numoutlets" : 0,
					"patching_rect" : [ 339.33334344625473, 85.333335876464844, 252.0, 145.0 ],
					"presentation" : 1,
					"presentation_rect" : [ 39.611111111111086, 187.0, 252.0, 134.0 ],
					"proportion" : 0.5
				}

			}
, 			{
				"box" : 				{
					"angle" : 270.0,
					"border" : 3,
					"grad1" : [ 0.0, 0.0, 0.0, 1.0 ],
					"grad2" : [ 0.243137254901961, 0.905882352941176, 0.537254901960784, 1.0 ],
					"id" : "obj-63",
					"maxclass" : "panel",
					"mode" : 1,
					"numinlets" : 1,
					"numoutlets" : 0,
					"patching_rect" : [ 323.333342969417572, 23.333334028720856, 279.0, 223.0 ],
					"presentation" : 1,
					"presentation_rect" : [ 15.0, 15.0, 300.0, 465.0 ],
					"proportion" : 0.5
				}

			}
, 			{
				"box" : 				{
					"angle" : 270.0,
					"bgcolor" : [ 0.180392156862745, 0.180392156862745, 0.333333333333333, 1.0 ],
					"id" : "obj-5",
					"maxclass" : "panel",
					"mode" : 0,
					"numinlets" : 1,
					"numoutlets" : 0,
					"patching_rect" : [ 313.333342671394348, 12.000000357627869, 300.0, 242.5 ],
					"presentation" : 1,
					"presentation_rect" : [ 6.0, 0.0, 330.0, 495.0 ],
					"proportion" : 0.5,
					"rounded" : 20
				}

			}
, 			{
				"box" : 				{
					"id" : "obj-4",
					"maxclass" : "ezdac~",
					"numinlets" : 2,
					"numoutlets" : 0,
					"patching_rect" : [ 211.0, 645.0, 45.0, 45.0 ]
				}

			}
, 			{
				"box" : 				{
					"id" : "obj-3",
					"lastchannelcount" : 0,
					"maxclass" : "live.gain~",
					"numinlets" : 2,
					"numoutlets" : 5,
					"outlettype" : [ "signal", "signal", "", "float", "list" ],
					"parameter_enable" : 1,
					"patching_rect" : [ 211.0, 486.0, 48.0, 136.0 ],
					"saved_attribute_attributes" : 					{
						"valueof" : 						{
							"parameter_longname" : "live.gain~",
							"parameter_mmax" : 6.0,
							"parameter_mmin" : -70.0,
							"parameter_modmode" : 0,
							"parameter_shortname" : "live.gain~",
							"parameter_type" : 0,
							"parameter_unitstyle" : 4
						}

					}
,
					"varname" : "live.gain~"
				}

			}
, 			{
				"box" : 				{
					"id" : "obj-1",
					"maxclass" : "newobj",
					"numinlets" : 8,
					"numoutlets" : 15,
					"outlettype" : [ "signal", "signal", "signal", "signal", "signal", "signal", "signal", "signal", "signal", "signal", "signal", "signal", "signal", "signal", "signal" ],
					"patcher" : 					{
						"fileversion" : 1,
						"appversion" : 						{
							"major" : 8,
							"minor" : 6,
							"revision" : 2,
							"architecture" : "x64",
							"modernui" : 1
						}
,
						"classnamespace" : "dsp.gen",
						"rect" : [ 190.0, 178.0, 1526.0, 921.0 ],
						"bglocked" : 0,
						"openinpresentation" : 0,
						"default_fontsize" : 12.0,
						"default_fontface" : 0,
						"default_fontname" : "Arial",
						"gridonopen" : 1,
						"gridsize" : [ 15.0, 15.0 ],
						"gridsnaponopen" : 1,
						"objectsnaponopen" : 1,
						"statusbarvisible" : 2,
						"toolbarvisible" : 1,
						"lefttoolbarpinned" : 0,
						"toptoolbarpinned" : 0,
						"righttoolbarpinned" : 0,
						"bottomtoolbarpinned" : 0,
						"toolbars_unpinned_last_save" : 0,
						"tallnewobj" : 0,
						"boxanimatetime" : 200,
						"enablehscroll" : 1,
						"enablevscroll" : 1,
						"devicewidth" : 0.0,
						"description" : "",
						"digest" : "",
						"tags" : "",
						"style" : "",
						"subpatcher_template" : "",
						"assistshowspatchername" : 0,
						"boxes" : [ 							{
								"box" : 								{
									"id" : "obj-73",
									"maxclass" : "newobj",
									"numinlets" : 3,
									"numoutlets" : 1,
									"outlettype" : [ "" ],
									"patching_rect" : [ 990.000014066696167, 682.0, 71.0, 22.0 ],
									"text" : "go.quantize"
								}

							}
, 							{
								"box" : 								{
									"id" : "obj-72",
									"maxclass" : "newobj",
									"numinlets" : 1,
									"numoutlets" : 1,
									"outlettype" : [ "" ],
									"patching_rect" : [ 1187.333368718624115, 731.200010895729065, 100.0, 22.0 ]
								}

							}
, 							{
								"box" : 								{
									"id" : "obj-71",
									"maxclass" : "newobj",
									"numinlets" : 1,
									"numoutlets" : 1,
									"outlettype" : [ "" ],
									"patching_rect" : [ 759.200011312961578, 691.200010299682617, 29.0, 22.0 ],
									"text" : "/ 10"
								}

							}
, 							{
								"box" : 								{
									"id" : "obj-70",
									"maxclass" : "newobj",
									"numinlets" : 1,
									"numoutlets" : 1,
									"outlettype" : [ "" ],
									"patching_rect" : [ 759.200011312961578, 658.40000981092453, 29.0, 22.0 ],
									"text" : "/ 16"
								}

							}
, 							{
								"box" : 								{
									"id" : "obj-69",
									"maxclass" : "newobj",
									"numinlets" : 0,
									"numoutlets" : 1,
									"outlettype" : [ "" ],
									"patching_rect" : [ 860.000012814998627, 564.000008404254913, 28.0, 22.0 ],
									"text" : "in 8"
								}

							}
, 							{
								"box" : 								{
									"id" : "obj-67",
									"maxclass" : "newobj",
									"numinlets" : 1,
									"numoutlets" : 1,
									"outlettype" : [ "" ],
									"patching_rect" : [ 793.600011825561523, 542.400008082389832, 44.0, 22.0 ],
									"text" : "history"
								}

							}
, 							{
								"box" : 								{
									"id" : "obj-66",
									"maxclass" : "newobj",
									"numinlets" : 2,
									"numoutlets" : 1,
									"outlettype" : [ "" ],
									"patching_rect" : [ 793.600011825561523, 580.800008654594421, 52.0, 22.0 ],
									"text" : "switch 0"
								}

							}
, 							{
								"box" : 								{
									"id" : "obj-64",
									"maxclass" : "newobj",
									"numinlets" : 0,
									"numoutlets" : 1,
									"outlettype" : [ "" ],
									"patching_rect" : [ 992.000014781951904, 495.200007379055023, 19.0, 22.0 ],
									"text" : "1"
								}

							}
, 							{
								"box" : 								{
									"id" : "obj-58",
									"maxclass" : "newobj",
									"numinlets" : 1,
									"numoutlets" : 0,
									"patching_rect" : [ 942.100011825561523, 816.0, 42.0, 22.0 ],
									"text" : "out 15"
								}

							}
, 							{
								"box" : 								{
									"id" : "obj-56",
									"maxclass" : "newobj",
									"numinlets" : 0,
									"numoutlets" : 1,
									"outlettype" : [ "" ],
									"patching_rect" : [ 829.600012362003326, 518.400007724761963, 19.0, 22.0 ],
									"text" : "1"
								}

							}
, 							{
								"box" : 								{
									"id" : "obj-55",
									"maxclass" : "newobj",
									"numinlets" : 2,
									"numoutlets" : 3,
									"outlettype" : [ "", "", "" ],
									"patching_rect" : [ 793.600011825561523, 617.600009202957153, 65.0, 22.0 ],
									"text" : "counter 16"
								}

							}
, 							{
								"box" : 								{
									"id" : "obj-50",
									"maxclass" : "newobj",
									"numinlets" : 3,
									"numoutlets" : 0,
									"patching_rect" : [ 759.100011825561523, 816.0, 88.0, 22.0 ],
									"text" : "poke params 3"
								}

							}
, 							{
								"box" : 								{
									"id" : "obj-47",
									"maxclass" : "newobj",
									"numinlets" : 2,
									"numoutlets" : 2,
									"outlettype" : [ "", "" ],
									"patching_rect" : [ 759.200011312961578, 731.200010895729065, 79.0, 22.0 ],
									"text" : "sample noise"
								}

							}
, 							{
								"box" : 								{
									"id" : "obj-46",
									"maxclass" : "newobj",
									"numinlets" : 0,
									"numoutlets" : 1,
									"outlettype" : [ "" ],
									"patching_rect" : [ 1014.400015115737915, 366.000010907649994, 28.0, 22.0 ],
									"text" : "in 7"
								}

							}
, 							{
								"box" : 								{
									"id" : "obj-44",
									"maxclass" : "newobj",
									"numinlets" : 2,
									"numoutlets" : 1,
									"outlettype" : [ "" ],
									"patching_rect" : [ 1014.400015115737915, 414.400006175041199, 45.0, 22.0 ],
									"text" : "phasor"
								}

							}
, 							{
								"box" : 								{
									"id" : "obj-40",
									"maxclass" : "newobj",
									"numinlets" : 2,
									"numoutlets" : 1,
									"outlettype" : [ "" ],
									"patching_rect" : [ 992.000014781951904, 528.00000786781311, 104.000001549720764, 22.0 ],
									"text" : "accum"
								}

							}
, 							{
								"box" : 								{
									"id" : "obj-39",
									"maxclass" : "newobj",
									"numinlets" : 4,
									"numoutlets" : 0,
									"patching_rect" : [ 944.000014066696167, 563.200008392333984, 163.0, 22.0 ],
									"text" : "poke noise"
								}

							}
, 							{
								"box" : 								{
									"id" : "obj-36",
									"maxclass" : "newobj",
									"numinlets" : 0,
									"numoutlets" : 2,
									"outlettype" : [ "", "" ],
									"patching_rect" : [ 717.0, 434.400006473064423, 145.0, 22.0 ],
									"text" : "data noise samplerate*10"
								}

							}
, 							{
								"box" : 								{
									"id" : "obj-35",
									"maxclass" : "newobj",
									"numinlets" : 0,
									"numoutlets" : 1,
									"outlettype" : [ "" ],
									"patching_rect" : [ 944.000014066696167, 414.400006175041199, 37.0, 22.0 ],
									"text" : "noise"
								}

							}
, 							{
								"box" : 								{
									"id" : "obj-22",
									"maxclass" : "newobj",
									"numinlets" : 2,
									"numoutlets" : 3,
									"outlettype" : [ "", "", "" ],
									"patching_rect" : [ 944.000014066696167, 462.400006890296936, 89.0, 22.0 ],
									"text" : "go.shift.spline6"
								}

							}
, 							{
								"box" : 								{
									"id" : "obj-20",
									"maxclass" : "newobj",
									"numinlets" : 1,
									"numoutlets" : 0,
									"patching_rect" : [ 878.100011825561523, 816.0, 42.0, 22.0 ],
									"text" : "out 14"
								}

							}
, 							{
								"box" : 								{
									"id" : "obj-60",
									"maxclass" : "newobj",
									"numinlets" : 1,
									"numoutlets" : 1,
									"outlettype" : [ "" ],
									"patching_rect" : [ 58.000001728534698, 790.000023543834686, 33.0, 22.0 ],
									"text" : "* 0.4"
								}

							}
, 							{
								"box" : 								{
									"id" : "obj-61",
									"maxclass" : "newobj",
									"numinlets" : 2,
									"numoutlets" : 2,
									"outlettype" : [ "", "" ],
									"patching_rect" : [ 58.000001728534698, 820.000024437904358, 141.0, 22.0 ],
									"text" : "go.allpass.diffuser.stereo"
								}

							}
, 							{
								"box" : 								{
									"id" : "obj-59",
									"maxclass" : "newobj",
									"numinlets" : 0,
									"numoutlets" : 1,
									"outlettype" : [ "" ],
									"patching_rect" : [ 1187.333368718624115, 328.000009775161743, 28.0, 22.0 ],
									"text" : "in 3"
								}

							}
, 							{
								"box" : 								{
									"id" : "obj-57",
									"maxclass" : "newobj",
									"numinlets" : 0,
									"numoutlets" : 0,
									"patching_rect" : [ 717.0, 349.0, 35.0, 22.0 ],
									"text" : "poke"
								}

							}
, 							{
								"box" : 								{
									"code" : "if(elapsed == 0 || in1 == 1){\r\n\tfor(c=0;c<3;c+=1){\r\nfor(s = 0;s<16;s+=1){\r\nr = scale(noise(),-1,1,0,1);\r\npoke(params,r,s,c);\r\n\r\n}\r\n}\r\n\t\r\n\t}",
									"fontface" : 0,
									"fontname" : "<Monospaced>",
									"fontsize" : 12.0,
									"id" : "obj-54",
									"maxclass" : "codebox",
									"numinlets" : 1,
									"numoutlets" : 0,
									"patching_rect" : [ 1187.333368718624115, 366.000010907649994, 528.666682422161102, 266.000007927417755 ]
								}

							}
, 							{
								"box" : 								{
									"id" : "obj-51",
									"maxclass" : "newobj",
									"numinlets" : 0,
									"numoutlets" : 2,
									"outlettype" : [ "", "" ],
									"patching_rect" : [ 717.0, 395.0, 102.0, 22.0 ],
									"text" : "data params 16 3"
								}

							}
, 							{
								"box" : 								{
									"id" : "obj-48",
									"maxclass" : "newobj",
									"numinlets" : 5,
									"numoutlets" : 1,
									"outlettype" : [ "" ],
									"patching_rect" : [ 595.0, 296.0, 86.0, 22.0 ],
									"text" : "gen_resonator"
								}

							}
, 							{
								"box" : 								{
									"code" : "// iterate over active voices:\r\ni = counter(1, 0, knob4_voices);\r\n// get parameters of current voice from buffer\r\nfreq, a, bw = peek(params, i, channels=3);\r\n// pre-scale to desired range:\r\nf = scale(freq, 0, 1, 300, 1000) * twopi/samplerate;\r\nb = scale(bw, 0, 1, 0.5, 10, 2) * twopi/samplerate;\r\n// sum all active voices:\r\nout1 = 0;\r\nout1 += gen_resonator(in1, i, f, a, b, id=0 , voices=knob4_voices);\r\nout1 += gen_resonator(in1, i, f, a, b, id=1 , voices=knob4_voices);\r\nout1 += gen_resonator(in1, i, f, a, b, id=2 , voices=knob4_voices);\r\nout1 += gen_resonator(in1, i, f, a, b, id=3 , voices=knob4_voices);\r\nout1 += gen_resonator(in1, i, f, a, b, id=4 , voices=knob4_voices);\r\nout1 += gen_resonator(in1, i, f, a, b, id=5 , voices=knob4_voices);\r\nout1 += gen_resonator(in1, i, f, a, b, id=6 , voices=knob4_voices);\r\nout1 += gen_resonator(in1, i, f, a, b, id=7 , voices=knob4_voices);\r\nout1 += gen_resonator(in1, i, f, a, b, id=8 , voices=knob4_voices);\r\nout1 += gen_resonator(in1, i, f, a, b, id=9 , voices=knob4_voices);\r\nout1 += gen_resonator(in1, i, f, a, b, id=10, voices=knob4_voices);\r\nout1 += gen_resonator(in1, i, f, a, b, id=11, voices=knob4_voices);\r\nout1 += gen_resonator(in1, i, f, a, b, id=12, voices=knob4_voices);\r\nout1 += gen_resonator(in1, i, f, a, b, id=13, voices=knob4_voices);\r\nout1 += gen_resonator(in1, i, f, a, b, id=14, voices=knob4_voices);\r\nout1 += gen_resonator(in1, i, f, a, b, id=15, voices=knob4_voices);\r\n\r\n\r\n\r\n\r\n\r\n// Graham Wakefield",
									"fontface" : 0,
									"fontname" : "<Monospaced>",
									"fontsize" : 12.0,
									"id" : "obj-49",
									"maxclass" : "codebox",
									"numinlets" : 1,
									"numoutlets" : 1,
									"outlettype" : [ "" ],
									"patching_rect" : [ 58.000001728534698, 331.333343207836151, 625.0, 437.0 ]
								}

							}
, 							{
								"box" : 								{
									"id" : "obj-5",
									"linecount" : 2,
									"maxclass" : "comment",
									"numinlets" : 1,
									"numoutlets" : 0,
									"patching_rect" : [ 595.0, 252.0, 157.0, 34.0 ],
									"text" : "look in here for the voice implementation"
								}

							}
, 							{
								"box" : 								{
									"color" : [ 1.0, 0.066666666666667, 0.168627450980392, 1.0 ],
									"id" : "obj-33",
									"maxclass" : "newobj",
									"numinlets" : 1,
									"numoutlets" : 0,
									"patching_rect" : [ 886.440699100494385, 1094.067822694778442, 81.0, 22.0 ],
									"text" : "out 12 cvout2"
								}

							}
, 							{
								"box" : 								{
									"color" : [ 0.274509803921569, 0.125490196078431, 1.0, 1.0 ],
									"id" : "obj-31",
									"maxclass" : "newobj",
									"numinlets" : 0,
									"numoutlets" : 1,
									"outlettype" : [ "" ],
									"patching_rect" : [ 103.0, 296.666675508022308, 29.0, 22.0 ],
									"text" : "in 2"
								}

							}
, 							{
								"box" : 								{
									"color" : [ 0.274509803921569, 0.125490196078431, 1.0, 1.0 ],
									"id" : "obj-30",
									"maxclass" : "newobj",
									"numinlets" : 0,
									"numoutlets" : 1,
									"outlettype" : [ "" ],
									"patching_rect" : [ 58.000001728534698, 296.666675508022308, 28.0, 22.0 ],
									"text" : "in 1"
								}

							}
, 							{
								"box" : 								{
									"color" : [ 0.274509803921569, 0.125490196078431, 1.0, 1.0 ],
									"id" : "obj-29",
									"maxclass" : "newobj",
									"numinlets" : 1,
									"numoutlets" : 0,
									"patching_rect" : [ 180.000001728534698, 865.333359122276306, 35.0, 22.0 ],
									"text" : "out 2"
								}

							}
, 							{
								"box" : 								{
									"color" : [ 0.274509803921569, 0.125490196078431, 1.0, 1.0 ],
									"id" : "obj-28",
									"maxclass" : "newobj",
									"numinlets" : 1,
									"numoutlets" : 0,
									"patching_rect" : [ 58.000001728534698, 865.333359122276306, 35.0, 22.0 ],
									"text" : "out 1"
								}

							}
, 							{
								"box" : 								{
									"color" : [ 1.0, 0.066666666666667, 0.168627450980392, 1.0 ],
									"id" : "obj-27",
									"maxclass" : "newobj",
									"numinlets" : 1,
									"numoutlets" : 0,
									"patching_rect" : [ 797.000023424625397, 1094.067822694778442, 80.0, 22.0 ],
									"text" : "out 11 cvout1"
								}

							}
, 							{
								"box" : 								{
									"color" : [ 0.0, 0.850980392156863, 0.192156862745098, 1.0 ],
									"id" : "obj-26",
									"maxclass" : "newobj",
									"numinlets" : 1,
									"numoutlets" : 1,
									"outlettype" : [ "" ],
									"patching_rect" : [ 1507.200022459030151, 222.40000331401825, 107.0, 22.0 ],
									"text" : "oopsy.suggestions"
								}

							}
, 							{
								"box" : 								{
									"id" : "obj-25",
									"linecount" : 4,
									"maxclass" : "comment",
									"numinlets" : 1,
									"numoutlets" : 0,
									"patching_rect" : [ 796.000023722648621, 13.333333730697632, 150.0, 62.0 ],
									"text" : "port cvin 2. These can be reset as both gates or both CV ins in the \"earth-params.json\""
								}

							}
, 							{
								"box" : 								{
									"id" : "obj-24",
									"maxclass" : "comment",
									"numinlets" : 1,
									"numoutlets" : 0,
									"patching_rect" : [ 577.333350539207458, 27.333334743976593, 150.0, 20.0 ],
									"text" : "port cvin 1"
								}

							}
, 							{
								"box" : 								{
									"color" : [ 1.0, 0.0, 0.898039215686275, 1.0 ],
									"id" : "obj-21",
									"maxclass" : "newobj",
									"numinlets" : 0,
									"numoutlets" : 1,
									"outlettype" : [ "" ],
									"patching_rect" : [ 711.333354532718658, 57.333335638046265, 74.0, 22.0 ],
									"text" : "param cvin1"
								}

							}
, 							{
								"box" : 								{
									"id" : "obj-19",
									"maxclass" : "newobj",
									"numinlets" : 1,
									"numoutlets" : 1,
									"outlettype" : [ "" ],
									"patching_rect" : [ 577.333350539207458, 97.33333683013916, 89.0, 22.0 ],
									"text" : "oopsy.gate.min"
								}

							}
, 							{
								"box" : 								{
									"id" : "obj-16",
									"maxclass" : "newobj",
									"numinlets" : 1,
									"numoutlets" : 5,
									"outlettype" : [ "", "", "", "", "" ],
									"patching_rect" : [ 574.666683793067932, 133.333337903022766, 100.0, 22.0 ],
									"text" : "oopsy.gate2clock"
								}

							}
, 							{
								"box" : 								{
									"color" : [ 1.0, 0.0, 0.898039215686275, 1.0 ],
									"id" : "obj-17",
									"maxclass" : "newobj",
									"numinlets" : 0,
									"numoutlets" : 1,
									"outlettype" : [ "" ],
									"patching_rect" : [ 577.333350539207458, 57.333335638046265, 76.0, 22.0 ],
									"text" : "param gate1"
								}

							}
, 							{
								"box" : 								{
									"id" : "obj-10",
									"maxclass" : "newobj",
									"numinlets" : 1,
									"numoutlets" : 1,
									"outlettype" : [ "" ],
									"patching_rect" : [ 1403.200020909309387, 176.00000262260437, 86.0, 22.0 ],
									"text" : "oopsy.gate.trig"
								}

							}
, 							{
								"box" : 								{
									"id" : "obj-12",
									"maxclass" : "newobj",
									"numinlets" : 1,
									"numoutlets" : 1,
									"outlettype" : [ "" ],
									"patching_rect" : [ 1299.200019359588623, 176.00000262260437, 86.0, 22.0 ],
									"text" : "oopsy.gate.trig"
								}

							}
, 							{
								"box" : 								{
									"id" : "obj-13",
									"maxclass" : "newobj",
									"numinlets" : 1,
									"numoutlets" : 1,
									"outlettype" : [ "" ],
									"patching_rect" : [ 1184.800017654895782, 175.200002610683441, 86.0, 22.0 ],
									"text" : "oopsy.gate.trig"
								}

							}
, 							{
								"box" : 								{
									"id" : "obj-14",
									"maxclass" : "newobj",
									"numinlets" : 1,
									"numoutlets" : 1,
									"outlettype" : [ "" ],
									"patching_rect" : [ 1081.600016117095947, 175.200002610683441, 86.0, 22.0 ],
									"text" : "oopsy.gate.trig"
								}

							}
, 							{
								"box" : 								{
									"color" : [ 1.0, 0.611764705882353, 0.611764705882353, 1.0 ],
									"id" : "obj-77",
									"maxclass" : "newobj",
									"numinlets" : 1,
									"numoutlets" : 0,
									"patching_rect" : [ 1403.200020909309387, 222.40000331401825, 79.0, 22.0 ],
									"text" : "out 10 led8"
								}

							}
, 							{
								"box" : 								{
									"color" : [ 1.0, 0.611764705882353, 0.611764705882353, 1.0 ],
									"id" : "obj-78",
									"maxclass" : "newobj",
									"numinlets" : 1,
									"numoutlets" : 0,
									"patching_rect" : [ 1299.200019359588623, 220.000003278255463, 79.0, 22.0 ],
									"text" : "out 9 led7"
								}

							}
, 							{
								"box" : 								{
									"color" : [ 1.0, 0.611764705882353, 0.611764705882353, 1.0 ],
									"id" : "obj-80",
									"maxclass" : "newobj",
									"numinlets" : 1,
									"numoutlets" : 0,
									"patching_rect" : [ 1184.800017654895782, 224.800003349781036, 79.0, 22.0 ],
									"text" : "out 8 led6"
								}

							}
, 							{
								"box" : 								{
									"color" : [ 1.0, 0.611764705882353, 0.611764705882353, 1.0 ],
									"id" : "obj-126",
									"maxclass" : "newobj",
									"numinlets" : 1,
									"numoutlets" : 0,
									"patching_rect" : [ 1085.100016117095947, 224.800003349781036, 79.0, 22.0 ],
									"text" : "out 7 led5"
								}

							}
, 							{
								"box" : 								{
									"color" : [ 1.0, 0.611764705882353, 0.611764705882353, 1.0 ],
									"id" : "obj-135",
									"maxclass" : "newobj",
									"numinlets" : 1,
									"numoutlets" : 0,
									"patching_rect" : [ 1403.200020909309387, 108.666669905185699, 79.0, 22.0 ],
									"text" : "out 6 led4"
								}

							}
, 							{
								"box" : 								{
									"color" : [ 1.0, 0.611764705882353, 0.611764705882353, 1.0 ],
									"id" : "obj-136",
									"maxclass" : "newobj",
									"numinlets" : 1,
									"numoutlets" : 0,
									"patching_rect" : [ 1300.000038743019104, 108.666669905185699, 79.0, 22.0 ],
									"text" : "out 5 led3"
								}

							}
, 							{
								"box" : 								{
									"color" : [ 1.0, 0.611764705882353, 0.611764705882353, 1.0 ],
									"id" : "obj-185",
									"maxclass" : "newobj",
									"numinlets" : 1,
									"numoutlets" : 0,
									"patching_rect" : [ 1188.000035405158997, 108.666669905185699, 79.0, 22.0 ],
									"text" : "out 4 led2"
								}

							}
, 							{
								"box" : 								{
									"color" : [ 1.0, 0.611764705882353, 0.611764705882353, 1.0 ],
									"id" : "obj-194",
									"maxclass" : "newobj",
									"numinlets" : 1,
									"numoutlets" : 0,
									"patching_rect" : [ 1084.66669899225235, 108.666669905185699, 79.0, 22.0 ],
									"text" : "out 3 led1"
								}

							}
, 							{
								"box" : 								{
									"id" : "obj-8",
									"maxclass" : "newobj",
									"numinlets" : 1,
									"numoutlets" : 1,
									"outlettype" : [ "" ],
									"patching_rect" : [ 1403.200020909309387, 67.200001001358032, 86.0, 22.0 ],
									"text" : "oopsy.gate.trig"
								}

							}
, 							{
								"box" : 								{
									"id" : "obj-11",
									"maxclass" : "newobj",
									"numinlets" : 1,
									"numoutlets" : 1,
									"outlettype" : [ "" ],
									"patching_rect" : [ 1300.000038743019104, 67.333335340023041, 86.0, 22.0 ],
									"text" : "oopsy.gate.trig"
								}

							}
, 							{
								"box" : 								{
									"id" : "obj-9",
									"maxclass" : "newobj",
									"numinlets" : 1,
									"numoutlets" : 1,
									"outlettype" : [ "" ],
									"patching_rect" : [ 1188.000035405158997, 67.333335340023041, 86.0, 22.0 ],
									"text" : "oopsy.gate.trig"
								}

							}
, 							{
								"box" : 								{
									"id" : "obj-4",
									"maxclass" : "newobj",
									"numinlets" : 1,
									"numoutlets" : 1,
									"outlettype" : [ "" ],
									"patching_rect" : [ 1084.66669899225235, 67.333335340023041, 86.0, 22.0 ],
									"text" : "oopsy.gate.trig"
								}

							}
, 							{
								"box" : 								{
									"color" : [ 0.72156862745098, 0.886274509803922, 1.0, 1.0 ],
									"id" : "obj-144",
									"maxclass" : "newobj",
									"numinlets" : 0,
									"numoutlets" : 1,
									"outlettype" : [ "" ],
									"patching_rect" : [ 1403.200020909309387, 143.200002133846283, 68.0, 22.0 ],
									"text" : "param sw8"
								}

							}
, 							{
								"box" : 								{
									"color" : [ 0.72156862745098, 0.886274509803922, 1.0, 1.0 ],
									"id" : "obj-145",
									"maxclass" : "newobj",
									"numinlets" : 0,
									"numoutlets" : 1,
									"outlettype" : [ "" ],
									"patching_rect" : [ 1299.200019359588623, 143.200002133846283, 79.0, 22.0 ],
									"text" : "param sw7"
								}

							}
, 							{
								"box" : 								{
									"color" : [ 0.72156862745098, 0.886274509803922, 1.0, 1.0 ],
									"id" : "obj-146",
									"maxclass" : "newobj",
									"numinlets" : 0,
									"numoutlets" : 1,
									"outlettype" : [ "" ],
									"patching_rect" : [ 1184.800017654895782, 145.60000216960907, 70.0, 22.0 ],
									"text" : "param sw6"
								}

							}
, 							{
								"box" : 								{
									"color" : [ 0.72156862745098, 0.886274509803922, 1.0, 1.0 ],
									"id" : "obj-147",
									"maxclass" : "newobj",
									"numinlets" : 0,
									"numoutlets" : 1,
									"outlettype" : [ "" ],
									"patching_rect" : [ 1081.600016117095947, 144.800002157688141, 71.0, 22.0 ],
									"text" : "param sw5"
								}

							}
, 							{
								"box" : 								{
									"color" : [ 0.72156862745098, 0.886274509803922, 1.0, 1.0 ],
									"id" : "obj-124",
									"maxclass" : "newobj",
									"numinlets" : 0,
									"numoutlets" : 1,
									"outlettype" : [ "" ],
									"patching_rect" : [ 1403.200020909309387, 18.400000274181366, 68.0, 22.0 ],
									"text" : "param sw4"
								}

							}
, 							{
								"box" : 								{
									"color" : [ 0.72156862745098, 0.886274509803922, 1.0, 1.0 ],
									"id" : "obj-125",
									"maxclass" : "newobj",
									"numinlets" : 0,
									"numoutlets" : 1,
									"outlettype" : [ "" ],
									"patching_rect" : [ 1300.000038743019104, 18.000000536441803, 79.0, 22.0 ],
									"text" : "param sw3"
								}

							}
, 							{
								"box" : 								{
									"color" : [ 0.72156862745098, 0.886274509803922, 1.0, 1.0 ],
									"id" : "obj-123",
									"maxclass" : "newobj",
									"numinlets" : 0,
									"numoutlets" : 1,
									"outlettype" : [ "" ],
									"patching_rect" : [ 1188.000035405158997, 18.000000536441803, 70.0, 22.0 ],
									"text" : "param sw2"
								}

							}
, 							{
								"box" : 								{
									"color" : [ 0.72156862745098, 0.886274509803922, 1.0, 1.0 ],
									"id" : "obj-122",
									"maxclass" : "newobj",
									"numinlets" : 0,
									"numoutlets" : 1,
									"outlettype" : [ "" ],
									"patching_rect" : [ 1084.66669899225235, 18.000000536441803, 71.0, 22.0 ],
									"text" : "param sw1"
								}

							}
, 							{
								"box" : 								{
									"color" : [ 1.0, 0.419607843137255, 0.141176470588235, 1.0 ],
									"id" : "obj-15",
									"maxclass" : "newobj",
									"numinlets" : 0,
									"numoutlets" : 1,
									"outlettype" : [ "" ],
									"patching_rect" : [ 169.00000011920929, 105.0, 229.0, 22.0 ],
									"text" : "param knob4_voices 4 @min 1 @max 32"
								}

							}
, 							{
								"box" : 								{
									"color" : [ 1.0, 0.419607843137255, 0.141176470588235, 1.0 ],
									"id" : "obj-62",
									"maxclass" : "newobj",
									"numinlets" : 0,
									"numoutlets" : 1,
									"outlettype" : [ "" ],
									"patching_rect" : [ 251.5, 166.0, 192.0, 22.0 ],
									"text" : "param knob6 1. @min 0. @max 1."
								}

							}
, 							{
								"box" : 								{
									"color" : [ 1.0, 0.419607843137255, 0.141176470588235, 1.0 ],
									"id" : "obj-23",
									"maxclass" : "newobj",
									"numinlets" : 0,
									"numoutlets" : 1,
									"outlettype" : [ "" ],
									"patching_rect" : [ 211.5, 138.0, 192.0, 22.0 ],
									"text" : "param knob5 1. @min 0. @max 1."
								}

							}
, 							{
								"box" : 								{
									"color" : [ 1.0, 0.419607843137255, 0.141176470588235, 1.0 ],
									"id" : "obj-37",
									"maxclass" : "newobj",
									"numinlets" : 0,
									"numoutlets" : 1,
									"outlettype" : [ "" ],
									"patching_rect" : [ 132.5, 74.0, 192.0, 22.0 ],
									"text" : "param knob3 0. @min 0. @max 1."
								}

							}
, 							{
								"box" : 								{
									"color" : [ 1.0, 0.419607843137255, 0.141176470588235, 1.0 ],
									"id" : "obj-32",
									"maxclass" : "newobj",
									"numinlets" : 0,
									"numoutlets" : 1,
									"outlettype" : [ "" ],
									"patching_rect" : [ 90.5, 42.0, 192.0, 22.0 ],
									"text" : "param knob2 0. @min 0. @max 1."
								}

							}
, 							{
								"box" : 								{
									"color" : [ 1.0, 0.419607843137255, 0.141176470588235, 1.0 ],
									"id" : "obj-68",
									"maxclass" : "newobj",
									"numinlets" : 0,
									"numoutlets" : 1,
									"outlettype" : [ "" ],
									"patching_rect" : [ 47.0, 14.0, 192.0, 22.0 ],
									"text" : "param knob1 0. @min 0. @max 1."
								}

							}
 ],
						"lines" : [ 							{
								"patchline" : 								{
									"destination" : [ "obj-4", 0 ],
									"source" : [ "obj-122", 0 ]
								}

							}
, 							{
								"patchline" : 								{
									"destination" : [ "obj-9", 0 ],
									"source" : [ "obj-123", 0 ]
								}

							}
, 							{
								"patchline" : 								{
									"destination" : [ "obj-8", 0 ],
									"source" : [ "obj-124", 0 ]
								}

							}
, 							{
								"patchline" : 								{
									"destination" : [ "obj-11", 0 ],
									"source" : [ "obj-125", 0 ]
								}

							}
, 							{
								"patchline" : 								{
									"destination" : [ "obj-10", 0 ],
									"source" : [ "obj-144", 0 ]
								}

							}
, 							{
								"patchline" : 								{
									"destination" : [ "obj-12", 0 ],
									"source" : [ "obj-145", 0 ]
								}

							}
, 							{
								"patchline" : 								{
									"destination" : [ "obj-13", 0 ],
									"source" : [ "obj-146", 0 ]
								}

							}
, 							{
								"patchline" : 								{
									"destination" : [ "obj-14", 0 ],
									"source" : [ "obj-147", 0 ]
								}

							}
, 							{
								"patchline" : 								{
									"destination" : [ "obj-19", 0 ],
									"source" : [ "obj-17", 0 ]
								}

							}
, 							{
								"patchline" : 								{
									"destination" : [ "obj-16", 0 ],
									"source" : [ "obj-19", 0 ]
								}

							}
, 							{
								"patchline" : 								{
									"destination" : [ "obj-39", 0 ],
									"source" : [ "obj-22", 0 ]
								}

							}
, 							{
								"patchline" : 								{
									"destination" : [ "obj-49", 0 ],
									"source" : [ "obj-30", 0 ]
								}

							}
, 							{
								"patchline" : 								{
									"destination" : [ "obj-49", 0 ],
									"source" : [ "obj-31", 0 ]
								}

							}
, 							{
								"patchline" : 								{
									"destination" : [ "obj-22", 0 ],
									"source" : [ "obj-35", 0 ]
								}

							}
, 							{
								"patchline" : 								{
									"destination" : [ "obj-39", 1 ],
									"source" : [ "obj-40", 0 ]
								}

							}
, 							{
								"patchline" : 								{
									"destination" : [ "obj-22", 1 ],
									"source" : [ "obj-44", 0 ]
								}

							}
, 							{
								"patchline" : 								{
									"destination" : [ "obj-44", 0 ],
									"source" : [ "obj-46", 0 ]
								}

							}
, 							{
								"patchline" : 								{
									"destination" : [ "obj-20", 0 ],
									"order" : 1,
									"source" : [ "obj-47", 0 ]
								}

							}
, 							{
								"patchline" : 								{
									"destination" : [ "obj-50", 0 ],
									"order" : 2,
									"source" : [ "obj-47", 0 ]
								}

							}
, 							{
								"patchline" : 								{
									"destination" : [ "obj-58", 0 ],
									"order" : 0,
									"source" : [ "obj-47", 0 ]
								}

							}
, 							{
								"patchline" : 								{
									"destination" : [ "obj-60", 0 ],
									"source" : [ "obj-49", 0 ]
								}

							}
, 							{
								"patchline" : 								{
									"destination" : [ "obj-50", 1 ],
									"order" : 0,
									"source" : [ "obj-55", 0 ]
								}

							}
, 							{
								"patchline" : 								{
									"destination" : [ "obj-67", 0 ],
									"source" : [ "obj-55", 1 ]
								}

							}
, 							{
								"patchline" : 								{
									"destination" : [ "obj-70", 0 ],
									"order" : 1,
									"source" : [ "obj-55", 0 ]
								}

							}
, 							{
								"patchline" : 								{
									"destination" : [ "obj-66", 1 ],
									"source" : [ "obj-56", 0 ]
								}

							}
, 							{
								"patchline" : 								{
									"destination" : [ "obj-54", 0 ],
									"source" : [ "obj-59", 0 ]
								}

							}
, 							{
								"patchline" : 								{
									"destination" : [ "obj-61", 1 ],
									"midpoints" : [ 67.500001728534698, 815.000024437904358, 189.500001728534698, 815.000024437904358 ],
									"order" : 0,
									"source" : [ "obj-60", 0 ]
								}

							}
, 							{
								"patchline" : 								{
									"destination" : [ "obj-61", 0 ],
									"order" : 1,
									"source" : [ "obj-60", 0 ]
								}

							}
, 							{
								"patchline" : 								{
									"destination" : [ "obj-28", 0 ],
									"source" : [ "obj-61", 0 ]
								}

							}
, 							{
								"patchline" : 								{
									"destination" : [ "obj-29", 0 ],
									"source" : [ "obj-61", 1 ]
								}

							}
, 							{
								"patchline" : 								{
									"destination" : [ "obj-40", 0 ],
									"source" : [ "obj-64", 0 ]
								}

							}
, 							{
								"patchline" : 								{
									"destination" : [ "obj-55", 0 ],
									"source" : [ "obj-66", 0 ]
								}

							}
, 							{
								"patchline" : 								{
									"destination" : [ "obj-66", 0 ],
									"source" : [ "obj-67", 0 ]
								}

							}
, 							{
								"patchline" : 								{
									"destination" : [ "obj-55", 1 ],
									"source" : [ "obj-69", 0 ]
								}

							}
, 							{
								"patchline" : 								{
									"destination" : [ "obj-71", 0 ],
									"source" : [ "obj-70", 0 ]
								}

							}
, 							{
								"patchline" : 								{
									"destination" : [ "obj-47", 0 ],
									"source" : [ "obj-71", 0 ]
								}

							}
 ]
					}
,
					"patching_rect" : [ 211.0, 447.0, 159.0, 22.0 ],
					"saved_object_attributes" : 					{
						"exportfolder" : "C:/GitHub/CCAM-EARTH/grain-silo/",
						"exportname" : "grain_2dsilo"
					}
,
					"text" : "gen~",
					"varname" : "grain_2dsilo"
				}

			}
, 			{
				"box" : 				{
					"attr" : "knob1",
					"id" : "obj-6",
					"maxclass" : "attrui",
					"numinlets" : 1,
					"numoutlets" : 1,
					"outlettype" : [ "" ],
					"parameter_enable" : 0,
					"patching_rect" : [ 73.404254794120789, 292.000008702278137, 150.0, 22.0 ]
				}

			}
, 			{
				"box" : 				{
					"attr" : "knob2",
					"id" : "obj-7",
					"maxclass" : "attrui",
					"numinlets" : 1,
					"numoutlets" : 1,
					"outlettype" : [ "" ],
					"parameter_enable" : 0,
					"patching_rect" : [ 81.382978141307831, 298.91490226984024, 150.0, 22.0 ]
				}

			}
, 			{
				"box" : 				{
					"attr" : "knob3",
					"id" : "obj-8",
					"maxclass" : "attrui",
					"numinlets" : 1,
					"numoutlets" : 1,
					"outlettype" : [ "" ],
					"parameter_enable" : 0,
					"patching_rect" : [ 81.382978141307831, 323.382987201213837, 150.0, 22.0 ]
				}

			}
, 			{
				"box" : 				{
					"attr" : "knob4_voices",
					"id" : "obj-9",
					"maxclass" : "attrui",
					"numinlets" : 1,
					"numoutlets" : 1,
					"outlettype" : [ "" ],
					"parameter_enable" : 0,
					"patching_rect" : [ 81.382978141307831, 350.51064658164978, 150.0, 22.0 ]
				}

			}
, 			{
				"box" : 				{
					"attr" : "knob5",
					"id" : "obj-10",
					"maxclass" : "attrui",
					"numinlets" : 1,
					"numoutlets" : 1,
					"outlettype" : [ "" ],
					"parameter_enable" : 0,
					"patching_rect" : [ 81.382978141307831, 378.702135741710663, 150.0, 22.0 ]
				}

			}
, 			{
				"box" : 				{
					"attr" : "knob6",
					"id" : "obj-11",
					"maxclass" : "attrui",
					"numinlets" : 1,
					"numoutlets" : 1,
					"outlettype" : [ "" ],
					"parameter_enable" : 0,
					"patching_rect" : [ 81.382978141307831, 406.893624901771545, 150.0, 22.0 ]
				}

			}
 ],
		"lines" : [ 			{
				"patchline" : 				{
					"destination" : [ "obj-12", 0 ],
					"source" : [ "obj-1", 11 ]
				}

			}
, 			{
				"patchline" : 				{
					"destination" : [ "obj-15", 0 ],
					"source" : [ "obj-1", 10 ]
				}

			}
, 			{
				"patchline" : 				{
					"destination" : [ "obj-2", 0 ],
					"order" : 1,
					"source" : [ "obj-1", 13 ]
				}

			}
, 			{
				"patchline" : 				{
					"destination" : [ "obj-29", 0 ],
					"order" : 0,
					"source" : [ "obj-1", 13 ]
				}

			}
, 			{
				"patchline" : 				{
					"destination" : [ "obj-3", 1 ],
					"order" : 0,
					"source" : [ "obj-1", 0 ]
				}

			}
, 			{
				"patchline" : 				{
					"destination" : [ "obj-3", 0 ],
					"order" : 1,
					"source" : [ "obj-1", 0 ]
				}

			}
, 			{
				"patchline" : 				{
					"destination" : [ "obj-32", 0 ],
					"source" : [ "obj-1", 14 ]
				}

			}
, 			{
				"patchline" : 				{
					"destination" : [ "obj-1", 0 ],
					"source" : [ "obj-10", 0 ]
				}

			}
, 			{
				"patchline" : 				{
					"destination" : [ "obj-1", 0 ],
					"source" : [ "obj-11", 0 ]
				}

			}
, 			{
				"patchline" : 				{
					"destination" : [ "obj-1", 5 ],
					"source" : [ "obj-13", 0 ]
				}

			}
, 			{
				"patchline" : 				{
					"destination" : [ "obj-13", 0 ],
					"source" : [ "obj-18", 0 ]
				}

			}
, 			{
				"patchline" : 				{
					"destination" : [ "obj-21", 0 ],
					"source" : [ "obj-19", 0 ]
				}

			}
, 			{
				"patchline" : 				{
					"destination" : [ "obj-1", 4 ],
					"source" : [ "obj-20", 0 ]
				}

			}
, 			{
				"patchline" : 				{
					"destination" : [ "obj-1", 3 ],
					"source" : [ "obj-21", 0 ]
				}

			}
, 			{
				"patchline" : 				{
					"destination" : [ "obj-18", 0 ],
					"order" : 1,
					"source" : [ "obj-22", 0 ]
				}

			}
, 			{
				"patchline" : 				{
					"destination" : [ "obj-19", 0 ],
					"order" : 0,
					"source" : [ "obj-22", 0 ]
				}

			}
, 			{
				"patchline" : 				{
					"destination" : [ "obj-18", 0 ],
					"order" : 1,
					"source" : [ "obj-24", 0 ]
				}

			}
, 			{
				"patchline" : 				{
					"destination" : [ "obj-20", 0 ],
					"order" : 0,
					"source" : [ "obj-24", 0 ]
				}

			}
, 			{
				"patchline" : 				{
					"destination" : [ "obj-21", 1 ],
					"source" : [ "obj-27", 0 ]
				}

			}
, 			{
				"patchline" : 				{
					"destination" : [ "obj-4", 1 ],
					"source" : [ "obj-3", 1 ]
				}

			}
, 			{
				"patchline" : 				{
					"destination" : [ "obj-4", 0 ],
					"source" : [ "obj-3", 0 ]
				}

			}
, 			{
				"patchline" : 				{
					"destination" : [ "obj-1", 6 ],
					"source" : [ "obj-30", 0 ]
				}

			}
, 			{
				"patchline" : 				{
					"destination" : [ "obj-30", 0 ],
					"source" : [ "obj-31", 0 ]
				}

			}
, 			{
				"patchline" : 				{
					"destination" : [ "obj-1", 0 ],
					"source" : [ "obj-39", 0 ]
				}

			}
, 			{
				"patchline" : 				{
					"destination" : [ "obj-6", 0 ],
					"source" : [ "obj-56", 0 ]
				}

			}
, 			{
				"patchline" : 				{
					"destination" : [ "obj-7", 0 ],
					"source" : [ "obj-57", 0 ]
				}

			}
, 			{
				"patchline" : 				{
					"destination" : [ "obj-8", 0 ],
					"source" : [ "obj-58", 0 ]
				}

			}
, 			{
				"patchline" : 				{
					"destination" : [ "obj-11", 0 ],
					"source" : [ "obj-59", 0 ]
				}

			}
, 			{
				"patchline" : 				{
					"destination" : [ "obj-1", 0 ],
					"source" : [ "obj-6", 0 ]
				}

			}
, 			{
				"patchline" : 				{
					"destination" : [ "obj-10", 0 ],
					"midpoints" : [ 432.333343505859375, 206.333334505558014 ],
					"source" : [ "obj-60", 0 ]
				}

			}
, 			{
				"patchline" : 				{
					"destination" : [ "obj-9", 0 ],
					"source" : [ "obj-61", 0 ]
				}

			}
, 			{
				"patchline" : 				{
					"destination" : [ "obj-1", 0 ],
					"source" : [ "obj-7", 0 ]
				}

			}
, 			{
				"patchline" : 				{
					"destination" : [ "obj-1", 0 ],
					"source" : [ "obj-8", 0 ]
				}

			}
, 			{
				"patchline" : 				{
					"destination" : [ "obj-1", 0 ],
					"source" : [ "obj-9", 0 ]
				}

			}
 ],
		"parameters" : 		{
			"obj-3" : [ "live.gain~", "live.gain~", 0 ],
			"obj-56" : [ "BPM", "knob", 0 ],
			"obj-57" : [ "BPM[1]", "knob", 0 ],
			"obj-58" : [ "BPM[2]", "knob", 0 ],
			"obj-59" : [ "BPM[3]", "knob", 0 ],
			"obj-60" : [ "BPM[4]", "knob", 0 ],
			"obj-61" : [ "BPM[5]", "voices", 0 ],
			"parameterbanks" : 			{
				"0" : 				{
					"index" : 0,
					"name" : "",
					"parameters" : [ "-", "-", "-", "-", "-", "-", "-", "-" ]
				}

			}
,
			"inherited_shortname" : 1
		}
,
		"dependency_cache" : [ 			{
				"name" : "Tbn-ord-A#1-ff.wav",
				"bootpath" : "~/OneDrive/Documents/Max 8/Library/max patches and sounds 210319_01/trombone_sounds",
				"patcherrelativepath" : "../../../Users/galajo/OneDrive/Documents/Max 8/Library/max patches and sounds 210319_01/trombone_sounds",
				"type" : "WAVE",
				"implicit" : 1
			}
, 			{
				"name" : "gen_resonator.gendsp",
				"bootpath" : "~/AppData/Roaming/Cycling '74/Max 8/examples/gen",
				"patcherrelativepath" : "../../../Users/galajo/AppData/Roaming/Cycling '74/Max 8/examples/gen",
				"type" : "gDSP",
				"implicit" : 1
			}
, 			{
				"name" : "go.allpass.diffuser.stereo.gendsp",
				"bootpath" : "~/OneDrive/Documents/Max 8/Packages/GeneratingSoundAndOrganizingTime/patchers",
				"patcherrelativepath" : "../../../Users/galajo/OneDrive/Documents/Max 8/Packages/GeneratingSoundAndOrganizingTime/patchers",
				"type" : "gDSP",
				"implicit" : 1
			}
, 			{
				"name" : "go.quantize.gendsp",
				"bootpath" : "~/OneDrive/Documents/Max 8/Packages/GeneratingSoundAndOrganizingTime/patchers",
				"patcherrelativepath" : "../../../Users/galajo/OneDrive/Documents/Max 8/Packages/GeneratingSoundAndOrganizingTime/patchers",
				"type" : "gDSP",
				"implicit" : 1
			}
, 			{
				"name" : "go.ramp2trig.gendsp",
				"bootpath" : "~/OneDrive/Documents/Max 8/Packages/GeneratingSoundAndOrganizingTime/patchers",
				"patcherrelativepath" : "../../../Users/galajo/OneDrive/Documents/Max 8/Packages/GeneratingSoundAndOrganizingTime/patchers",
				"type" : "gDSP",
				"implicit" : 1
			}
, 			{
				"name" : "go.shift.spline6.gendsp",
				"bootpath" : "~/OneDrive/Documents/Max 8/Packages/GeneratingSoundAndOrganizingTime/patchers",
				"patcherrelativepath" : "../../../Users/galajo/OneDrive/Documents/Max 8/Packages/GeneratingSoundAndOrganizingTime/patchers",
				"type" : "gDSP",
				"implicit" : 1
			}
, 			{
				"name" : "oopsy.ctrl.smooth2.gendsp",
				"bootpath" : "~/OneDrive/Documents/Max 8/Packages/oopsy/code",
				"patcherrelativepath" : "../../../Users/galajo/OneDrive/Documents/Max 8/Packages/oopsy/code",
				"type" : "gDSP",
				"implicit" : 1
			}
, 			{
				"name" : "oopsy.ctrl.smooth3.gendsp",
				"bootpath" : "~/OneDrive/Documents/Max 8/Packages/oopsy/code",
				"patcherrelativepath" : "../../../Users/galajo/OneDrive/Documents/Max 8/Packages/oopsy/code",
				"type" : "gDSP",
				"implicit" : 1
			}
, 			{
				"name" : "oopsy.gate.min.gendsp",
				"bootpath" : "~/OneDrive/Documents/Max 8/Packages/oopsy/code",
				"patcherrelativepath" : "../../../Users/galajo/OneDrive/Documents/Max 8/Packages/oopsy/code",
				"type" : "gDSP",
				"implicit" : 1
			}
, 			{
				"name" : "oopsy.gate.trig.gendsp",
				"bootpath" : "~/OneDrive/Documents/Max 8/Packages/oopsy/code",
				"patcherrelativepath" : "../../../Users/galajo/OneDrive/Documents/Max 8/Packages/oopsy/code",
				"type" : "gDSP",
				"implicit" : 1
			}
, 			{
				"name" : "oopsy.gate2clock.gendsp",
				"bootpath" : "~/OneDrive/Documents/Max 8/Packages/oopsy/code",
				"patcherrelativepath" : "../../../Users/galajo/OneDrive/Documents/Max 8/Packages/oopsy/code",
				"type" : "gDSP",
				"implicit" : 1
			}
, 			{
				"name" : "oopsy.suggestions.gendsp",
				"bootpath" : "~/OneDrive/Documents/Max 8/Packages/oopsy/code",
				"patcherrelativepath" : "../../../Users/galajo/OneDrive/Documents/Max 8/Packages/oopsy/code",
				"type" : "gDSP",
				"implicit" : 1
			}
 ],
		"autosave" : 0,
		"styles" : [ 			{
				"name" : "MP-M4L",
				"default" : 				{
					"accentcolor" : [ 0.411764705882353, 0.411764705882353, 0.411764705882353, 1.0 ],
					"bgcolor" : [ 0.098039215686275, 0.098039215686275, 0.098039215686275, 1.0 ],
					"bgfillcolor" : 					{
						"color" : [ 0.266666666666667, 0.266666666666667, 0.266666666666667, 1.0 ],
						"color1" : [ 0.376470588235294, 0.384313725490196, 0.4, 1.0 ],
						"color2" : [ 0.290196078431373, 0.309803921568627, 0.301960784313725, 1.0 ],
						"dynamiccolor" : [ 0.266666666666667, 0.266666666666667, 0.266666666666667, 1.0, "live_contrast_frame", 1, 0.266666666666667, 0.266666666666667, 0.266666666666667, 1.0, "Control Border" ],
						"type" : "color"
					}
,
					"color" : [ 0.333333333333333, 0.870588235294118, 0.964705882352941, 1.0 ],
					"editing_bgcolor" : [ 0.56078431372549, 0.56078431372549, 0.56078431372549, 1.0 ],
					"elementcolor" : [ 0.313725490196078, 0.313725490196078, 0.313725490196078, 1.0 ],
					"locked_bgcolor" : [ 0.56078431372549, 0.56078431372549, 0.56078431372549, 1.0 ],
					"patchlinecolor" : [ 0.313725490196078, 0.313725490196078, 0.313725490196078, 1.0 ],
					"selectioncolor" : [ 1.0, 0.694117647058824, 0.0, 1.0 ],
					"stripecolor" : [ 0.313725490196078, 0.313725490196078, 0.313725490196078, 1.0 ],
					"textcolor" : [ 0.0, 0.0, 0.0, 1.0 ]
				}
,
				"parentstyle" : "",
				"multi" : 0
			}
, 			{
				"name" : "rnbodefault",
				"default" : 				{
					"accentcolor" : [ 0.343034118413925, 0.506230533123016, 0.86220508813858, 1.0 ],
					"bgcolor" : [ 0.031372549019608, 0.125490196078431, 0.211764705882353, 1.0 ],
					"bgfillcolor" : 					{
						"angle" : 270.0,
						"autogradient" : 0.0,
						"color" : [ 0.031372549019608, 0.125490196078431, 0.211764705882353, 1.0 ],
						"color1" : [ 0.031372549019608, 0.125490196078431, 0.211764705882353, 1.0 ],
						"color2" : [ 0.263682, 0.004541, 0.038797, 1.0 ],
						"proportion" : 0.39,
						"type" : "color"
					}
,
					"color" : [ 0.929412, 0.929412, 0.352941, 1.0 ],
					"elementcolor" : [ 0.357540726661682, 0.515565991401672, 0.861786782741547, 1.0 ],
					"fontname" : [ "Lato" ],
					"fontsize" : [ 12.0 ],
					"stripecolor" : [ 0.258338063955307, 0.352425158023834, 0.511919498443604, 1.0 ],
					"textcolor_inverse" : [ 0.968627, 0.968627, 0.968627, 1 ]
				}
,
				"parentstyle" : "",
				"multi" : 0
			}
 ]
	}

}
